<svg xmlns="http://www.w3.org/2000/svg" xmlns:xlink="http://www.w3.org/1999/xlink" width="54" height="54" version="1.1" viewBox="0 0 54 54"><g id="surface1"><path style="stroke:none;fill-rule:nonzero;fill:#000;fill-opacity:1" d="M 11.984375 10.683594 C 10.832031 10.769531 10.359375 11.480469 10.824219 12.429688 C 10.871094 12.527344 10.941406 12.652344 10.980469 12.710938 C 11.019531 12.769531 12.425781 14.605469 14.105469 16.785156 C 19.050781 23.207031 19.828125 24.21875 19.839844 24.238281 C 19.863281 24.273438 19.457031 25.03125 19.105469 25.621094 C 18.511719 26.609375 17.710938 27.710938 17.03125 28.472656 L 16.894531 28.621094 L 17.101562 28.515625 C 18.097656 28 19.199219 27.015625 20.261719 25.6875 C 22.402344 23.015625 24.324219 18.992188 24.808594 16.160156 C 24.882812 15.730469 24.90625 15.5 24.914062 15.09375 C 24.921875 14.675781 24.910156 14.425781 24.859375 14.0625 C 24.675781 12.738281 24.066406 11.761719 23.085938 11.214844 C 22.53125 10.910156 21.929688 10.75 21.097656 10.691406 L 20.984375 10.679688 L 21.023438 10.710938 C 21.070312 10.75 21.277344 11 21.351562 11.105469 C 21.378906 11.152344 21.40625 11.207031 21.40625 11.226562 C 21.40625 11.285156 21.359375 11.359375 21.304688 11.390625 C 21.195312 11.445312 21.132812 11.414062 20.988281 11.234375 C 20.929688 11.164062 20.847656 11.070312 20.808594 11.023438 C 20.765625 10.976562 20.726562 10.921875 20.722656 10.898438 C 20.710938 10.839844 20.738281 10.761719 20.789062 10.71875 L 20.832031 10.679688 L 19.316406 10.679688 C 18.480469 10.679688 16.527344 10.679688 14.972656 10.675781 C 13.414062 10.671875 12.070312 10.675781 11.984375 10.683594 Z M 21.835938 11.902344 C 21.859375 11.917969 21.925781 12.027344 22 12.171875 C 22.144531 12.457031 22.15625 12.515625 22.085938 12.59375 C 22.027344 12.652344 21.957031 12.664062 21.886719 12.628906 C 21.835938 12.601562 21.816406 12.570312 21.699219 12.351562 C 21.59375 12.152344 21.566406 12.085938 21.5625 12.039062 C 21.5625 11.902344 21.722656 11.820312 21.835938 11.902344 Z M 22.429688 13.253906 C 22.460938 13.285156 22.488281 13.359375 22.550781 13.550781 C 22.59375 13.695312 22.628906 13.824219 22.628906 13.835938 C 22.628906 13.882812 22.585938 13.949219 22.542969 13.972656 C 22.488281 14 22.445312 14 22.390625 13.964844 C 22.339844 13.933594 22.328125 13.90625 22.21875 13.574219 L 22.148438 13.363281 L 22.175781 13.308594 C 22.230469 13.199219 22.351562 13.175781 22.429688 13.253906 Z M 22.78125 14.648438 C 22.828125 14.679688 22.839844 14.71875 22.882812 15.003906 C 22.921875 15.28125 22.921875 15.324219 22.855469 15.367188 C 22.808594 15.398438 22.722656 15.394531 22.679688 15.355469 C 22.636719 15.320312 22.625 15.273438 22.570312 14.941406 C 22.539062 14.742188 22.539062 14.742188 22.566406 14.695312 C 22.609375 14.617188 22.703125 14.601562 22.78125 14.648438 Z M 22.960938 16.117188 C 22.996094 16.152344 22.996094 16.15625 23 16.441406 C 23.003906 16.757812 23.003906 16.773438 22.921875 16.808594 C 22.882812 16.824219 22.867188 16.824219 22.835938 16.8125 C 22.753906 16.769531 22.746094 16.742188 22.734375 16.460938 C 22.730469 16.316406 22.730469 16.183594 22.734375 16.160156 C 22.742188 16.140625 22.765625 16.109375 22.792969 16.09375 C 22.851562 16.058594 22.910156 16.066406 22.960938 16.117188 Z M 22.910156 17.542969 C 22.921875 17.546875 22.941406 17.570312 22.953125 17.59375 C 22.972656 17.628906 22.972656 17.664062 22.949219 17.90625 C 22.925781 18.164062 22.925781 18.175781 22.886719 18.214844 C 22.867188 18.234375 22.832031 18.253906 22.8125 18.253906 C 22.773438 18.253906 22.722656 18.21875 22.703125 18.179688 C 22.683594 18.148438 22.722656 17.632812 22.746094 17.589844 C 22.773438 17.539062 22.847656 17.519531 22.910156 17.542969 Z M 22.730469 18.996094 C 22.753906 19.007812 22.777344 19.03125 22.78125 19.050781 C 22.796875 19.101562 22.679688 19.601562 22.648438 19.636719 C 22.613281 19.679688 22.53125 19.667969 22.496094 19.617188 L 22.46875 19.578125 L 22.515625 19.335938 C 22.570312 19.058594 22.585938 19.007812 22.632812 18.988281 C 22.679688 18.96875 22.683594 18.96875 22.730469 18.996094 Z M 22.386719 20.441406 L 22.417969 20.480469 L 22.324219 20.730469 C 22.277344 20.867188 22.226562 20.992188 22.214844 21.007812 C 22.179688 21.046875 22.097656 21.035156 22.070312 20.988281 C 22.050781 20.957031 22.058594 20.929688 22.140625 20.695312 C 22.1875 20.550781 22.238281 20.425781 22.253906 20.414062 C 22.289062 20.386719 22.355469 20.398438 22.386719 20.441406 Z M 21.828125 21.78125 C 21.847656 21.796875 21.867188 21.820312 21.867188 21.828125 C 21.867188 21.859375 21.640625 22.320312 21.617188 22.339844 C 21.585938 22.367188 21.523438 22.347656 21.503906 22.308594 C 21.492188 22.28125 21.507812 22.238281 21.601562 22.03125 C 21.730469 21.738281 21.75 21.71875 21.828125 21.78125 Z M 21.175781 23.089844 C 21.195312 23.109375 21.203125 23.128906 21.195312 23.144531 C 21.191406 23.15625 21.132812 23.269531 21.0625 23.390625 C 20.972656 23.550781 20.929688 23.609375 20.90625 23.617188 C 20.867188 23.628906 20.832031 23.601562 20.832031 23.5625 C 20.832031 23.527344 21.054688 23.117188 21.09375 23.085938 C 21.128906 23.054688 21.140625 23.054688 21.175781 23.089844 Z M 20.417969 24.335938 C 20.429688 24.339844 20.441406 24.359375 20.441406 24.378906 C 20.441406 24.421875 20.164062 24.847656 20.136719 24.847656 C 20.109375 24.847656 20.082031 24.816406 20.082031 24.789062 C 20.082031 24.765625 20.308594 24.402344 20.351562 24.351562 C 20.375 24.324219 20.382812 24.324219 20.417969 24.335938 Z M 19.613281 25.585938 C 19.613281 25.632812 19.320312 26.015625 19.292969 26.007812 C 19.246094 26 19.273438 25.941406 19.414062 25.746094 C 19.523438 25.59375 19.558594 25.550781 19.582031 25.554688 C 19.605469 25.558594 19.613281 25.570312 19.613281 25.585938 Z M 18.71875 26.75 C 18.71875 26.78125 18.414062 27.136719 18.390625 27.136719 C 18.359375 27.136719 18.363281 27.113281 18.402344 27.066406 C 18.636719 26.78125 18.691406 26.71875 18.703125 26.722656 C 18.714844 26.726562 18.71875 26.738281 18.71875 26.75 Z M 17.765625 27.835938 C 17.765625 27.84375 17.683594 27.929688 17.582031 28.027344 C 17.484375 28.128906 17.402344 28.199219 17.402344 28.191406 C 17.402344 28.171875 17.734375 27.828125 17.75 27.828125 C 17.757812 27.828125 17.765625 27.832031 17.765625 27.835938 Z M 17.765625 27.835938"/><path style="stroke:none;fill-rule:nonzero;fill:#000;fill-opacity:1" d="M 37.132812 10.691406 C 36.039062 10.757812 35.03125 10.949219 34.039062 11.28125 C 31.757812 12.039062 29.90625 13.410156 28.679688 15.25 C 28.332031 15.769531 28.210938 15.996094 27.601562 17.246094 C 26.003906 20.539062 25.09375 22.21875 23.960938 23.933594 C 23.015625 25.367188 22.078125 26.535156 21.039062 27.574219 C 20.40625 28.210938 19.875 28.671875 19.21875 29.160156 C 18.585938 29.628906 18 29.996094 17.296875 30.355469 C 17.089844 30.460938 16.933594 30.546875 16.945312 30.546875 C 16.984375 30.546875 17.535156 30.433594 17.765625 30.375 C 19.277344 29.996094 20.832031 29.269531 22.421875 28.191406 L 22.730469 27.984375 L 22.964844 28.292969 C 23.59375 29.109375 24.359375 30.101562 24.832031 30.71875 C 25.382812 31.4375 25.550781 31.628906 25.78125 31.800781 C 26.015625 31.976562 26.277344 32.097656 26.550781 32.167969 C 26.753906 32.21875 27.09375 32.230469 27.308594 32.195312 C 27.664062 32.136719 28.003906 31.980469 28.292969 31.742188 C 28.554688 31.53125 28.035156 32.199219 37.429688 19.988281 C 37.789062 19.519531 38.300781 18.851562 38.570312 18.5 C 38.839844 18.148438 39.925781 16.742188 40.980469 15.371094 C 42.035156 14 42.945312 12.808594 43 12.726562 C 43.171875 12.46875 43.289062 12.203125 43.332031 11.96875 C 43.359375 11.808594 43.34375 11.5625 43.296875 11.429688 C 43.152344 11.023438 42.730469 10.765625 42.105469 10.695312 C 41.976562 10.683594 37.351562 10.679688 37.132812 10.691406 Z M 36.894531 13.742188 C 36.945312 13.765625 36.980469 13.828125 36.980469 13.882812 C 36.980469 13.9375 36.945312 14.003906 36.894531 14.027344 C 36.851562 14.050781 36.625 14.054688 36.390625 14.039062 C 36.277344 14.03125 36.257812 14.023438 36.222656 13.992188 C 36.152344 13.917969 36.175781 13.769531 36.265625 13.734375 C 36.285156 13.726562 36.421875 13.71875 36.574219 13.71875 C 36.796875 13.71875 36.863281 13.722656 36.894531 13.742188 Z M 35.457031 13.796875 C 35.546875 13.84375 35.5625 13.964844 35.492188 14.039062 C 35.445312 14.082031 35.449219 14.082031 35.132812 14.121094 C 34.855469 14.15625 34.828125 14.152344 34.777344 14.074219 C 34.730469 13.996094 34.769531 13.882812 34.855469 13.855469 C 34.894531 13.84375 35.316406 13.78125 35.375 13.777344 C 35.394531 13.777344 35.433594 13.785156 35.457031 13.796875 Z M 38.066406 13.824219 C 38.328125 13.863281 38.363281 13.878906 38.402344 13.953125 C 38.445312 14.046875 38.390625 14.164062 38.296875 14.1875 C 38.257812 14.199219 37.835938 14.148438 37.726562 14.121094 C 37.589844 14.085938 37.5625 13.890625 37.683594 13.816406 C 37.734375 13.785156 37.777344 13.785156 38.066406 13.824219 Z M 39.488281 14.101562 C 39.769531 14.171875 39.8125 14.199219 39.828125 14.304688 C 39.839844 14.402344 39.753906 14.511719 39.664062 14.511719 C 39.625 14.511719 39.140625 14.386719 39.097656 14.363281 C 38.988281 14.304688 38.984375 14.117188 39.09375 14.058594 C 39.15625 14.023438 39.214844 14.03125 39.488281 14.101562 Z M 34.046875 14.074219 C 34.125 14.121094 34.140625 14.226562 34.078125 14.292969 C 34.046875 14.328125 33.992188 14.347656 33.789062 14.410156 C 33.652344 14.449219 33.523438 14.480469 33.5 14.480469 C 33.433594 14.480469 33.367188 14.414062 33.367188 14.347656 C 33.367188 14.253906 33.410156 14.222656 33.6875 14.132812 C 33.824219 14.089844 33.953125 14.054688 33.96875 14.050781 C 33.988281 14.050781 34.023438 14.058594 34.046875 14.074219 Z M 40.859375 14.535156 C 41.121094 14.632812 41.175781 14.667969 41.199219 14.75 C 41.226562 14.851562 41.152344 14.96875 41.046875 14.980469 C 41 14.988281 40.945312 14.96875 40.730469 14.886719 C 40.417969 14.761719 40.386719 14.734375 40.386719 14.621094 C 40.386719 14.53125 40.421875 14.480469 40.5 14.445312 C 40.558594 14.417969 40.570312 14.421875 40.859375 14.535156 Z M 32.722656 14.609375 C 32.777344 14.664062 32.777344 14.738281 32.730469 14.789062 C 32.714844 14.808594 32.589844 14.882812 32.457031 14.949219 C 32.261719 15.050781 32.210938 15.070312 32.175781 15.066406 C 32.085938 15.046875 32.035156 14.941406 32.082031 14.867188 C 32.117188 14.8125 32.5625 14.570312 32.632812 14.570312 C 32.667969 14.566406 32.691406 14.578125 32.722656 14.609375 Z M 31.503906 15.390625 C 31.554688 15.480469 31.53125 15.511719 31.285156 15.707031 C 31.09375 15.855469 31.050781 15.882812 31.011719 15.882812 C 30.921875 15.882812 30.855469 15.761719 30.910156 15.691406 C 30.945312 15.644531 31.34375 15.332031 31.375 15.328125 C 31.425781 15.320312 31.484375 15.347656 31.503906 15.390625 Z M 30.367188 16.308594 C 30.417969 16.328125 30.453125 16.40625 30.433594 16.453125 C 30.421875 16.488281 30.152344 16.800781 30.078125 16.867188 C 30 16.9375 29.886719 16.886719 29.886719 16.789062 C 29.886719 16.746094 29.90625 16.714844 30.011719 16.59375 C 30.191406 16.382812 30.277344 16.296875 30.304688 16.296875 C 30.316406 16.296875 30.34375 16.300781 30.367188 16.308594 Z M 29.488281 17.484375 C 29.507812 17.5 29.523438 17.535156 29.523438 17.554688 C 29.523438 17.601562 29.25 18.058594 29.214844 18.070312 C 29.144531 18.097656 29.074219 18.0625 29.058594 17.996094 C 29.050781 17.96875 29.074219 17.910156 29.167969 17.75 C 29.324219 17.484375 29.355469 17.445312 29.410156 17.445312 C 29.4375 17.445312 29.46875 17.460938 29.488281 17.484375 Z M 28.722656 18.730469 C 28.789062 18.777344 28.773438 18.820312 28.632812 19.054688 C 28.558594 19.171875 28.488281 19.28125 28.476562 19.292969 C 28.449219 19.324219 28.375 19.324219 28.339844 19.292969 C 28.292969 19.25 28.308594 19.195312 28.445312 18.964844 C 28.609375 18.691406 28.640625 18.664062 28.722656 18.730469 Z M 27.972656 20 C 28.011719 20.046875 28.011719 20.042969 27.835938 20.320312 C 27.691406 20.550781 27.660156 20.578125 27.597656 20.53125 C 27.53125 20.480469 27.539062 20.441406 27.667969 20.234375 C 27.835938 19.964844 27.847656 19.949219 27.902344 19.953125 C 27.929688 19.957031 27.957031 19.972656 27.972656 20 Z M 27.1875 21.226562 C 27.207031 21.253906 27.207031 21.269531 27.195312 21.296875 C 27.160156 21.378906 26.902344 21.75 26.875 21.757812 C 26.820312 21.777344 26.75 21.707031 26.769531 21.65625 C 26.785156 21.617188 27.050781 21.214844 27.070312 21.203125 C 27.105469 21.175781 27.164062 21.191406 27.1875 21.226562 Z M 26.355469 22.421875 C 26.371094 22.433594 26.386719 22.457031 26.386719 22.476562 C 26.386719 22.507812 26.097656 22.929688 26.058594 22.953125 C 26.027344 22.96875 25.972656 22.9375 25.960938 22.898438 C 25.953125 22.867188 25.980469 22.820312 26.105469 22.636719 C 26.277344 22.386719 26.289062 22.375 26.355469 22.421875 Z M 25.511719 23.617188 C 25.527344 23.632812 25.539062 23.652344 25.539062 23.664062 C 25.539062 23.691406 25.226562 24.105469 25.195312 24.117188 C 25.167969 24.128906 25.105469 24.089844 25.105469 24.058594 C 25.105469 24.046875 25.160156 23.964844 25.222656 23.875 C 25.441406 23.578125 25.453125 23.566406 25.511719 23.617188 Z M 24.628906 24.777344 C 24.636719 24.789062 24.644531 24.804688 24.644531 24.816406 C 24.644531 24.847656 24.3125 25.242188 24.28125 25.246094 C 24.25 25.253906 24.214844 25.226562 24.214844 25.195312 C 24.214844 25.183594 24.289062 25.082031 24.378906 24.96875 C 24.550781 24.757812 24.582031 24.734375 24.628906 24.777344 Z M 23.679688 25.890625 C 23.6875 25.902344 23.695312 25.921875 23.691406 25.933594 C 23.6875 25.960938 23.367188 26.3125 23.332031 26.332031 C 23.304688 26.34375 23.257812 26.308594 23.265625 26.277344 C 23.273438 26.25 23.621094 25.867188 23.644531 25.867188 C 23.65625 25.867188 23.671875 25.878906 23.679688 25.890625 Z M 22.683594 26.96875 C 22.6875 26.992188 22.636719 27.046875 22.5 27.175781 C 22.398438 27.273438 22.304688 27.351562 22.292969 27.351562 C 22.28125 27.351562 22.265625 27.339844 22.257812 27.328125 C 22.246094 27.296875 22.609375 26.929688 22.652344 26.9375 C 22.667969 26.941406 22.679688 26.953125 22.683594 26.96875 Z M 21.609375 27.945312 C 21.609375 27.953125 21.601562 27.96875 21.597656 27.976562 C 21.570312 28.015625 21.21875 28.285156 21.195312 28.285156 C 21.140625 28.285156 21.191406 28.222656 21.363281 28.078125 C 21.53125 27.941406 21.609375 27.898438 21.609375 27.945312 Z M 20.441406 28.847656 C 20.429688 28.871094 20.050781 29.121094 20.027344 29.121094 C 19.976562 29.121094 20.035156 29.066406 20.21875 28.945312 C 20.402344 28.816406 20.472656 28.785156 20.441406 28.847656 Z M 19.21875 29.59375 C 19.21875 29.609375 18.804688 29.828125 18.777344 29.828125 C 18.730469 29.828125 18.769531 29.796875 18.964844 29.695312 C 19.160156 29.589844 19.21875 29.566406 19.21875 29.59375 Z M 17.902344 30.214844 C 17.878906 30.234375 17.445312 30.394531 17.4375 30.382812 C 17.433594 30.378906 17.511719 30.347656 17.609375 30.308594 C 17.707031 30.273438 17.804688 30.230469 17.828125 30.222656 C 17.878906 30.199219 17.917969 30.195312 17.902344 30.214844 Z M 17.902344 30.214844"/><path style="stroke:none;fill-rule:nonzero;fill:#000;fill-opacity:1" d="M 27.121094 35.5 C 27.078125 35.507812 27.011719 35.527344 26.96875 35.546875 C 26.769531 35.640625 26.6875 35.800781 26.6875 36.105469 C 26.6875 36.488281 26.828125 36.664062 27.164062 36.710938 C 27.464844 36.753906 27.730469 36.648438 27.835938 36.445312 C 27.875 36.371094 27.875 36.363281 27.875 36.105469 C 27.875 35.84375 27.875 35.835938 27.835938 35.765625 C 27.722656 35.550781 27.449219 35.445312 27.121094 35.5 Z M 27.121094 35.5"/><path style="stroke:none;fill-rule:nonzero;fill:#000;fill-opacity:1" d="M 37.484375 35.5 C 37.441406 35.507812 37.375 35.527344 37.335938 35.546875 C 37.132812 35.640625 37.054688 35.800781 37.054688 36.105469 C 37.054688 36.488281 37.191406 36.664062 37.527344 36.710938 C 37.855469 36.757812 38.148438 36.621094 38.222656 36.390625 C 38.257812 36.285156 38.257812 35.921875 38.222656 35.816406 C 38.144531 35.574219 37.839844 35.441406 37.484375 35.5 Z M 37.484375 35.5"/><path style="stroke:none;fill-rule:nonzero;fill:#000;fill-opacity:1" d="M 10.933594 35.609375 C 10.859375 35.625 10.824219 35.648438 10.800781 35.691406 C 10.777344 35.734375 10.773438 35.9375 10.773438 38.710938 C 10.773438 41.671875 10.773438 41.683594 10.804688 41.730469 C 10.851562 41.8125 10.902344 41.820312 11.328125 41.816406 C 11.730469 41.8125 11.753906 41.804688 11.792969 41.722656 C 11.808594 41.691406 11.8125 41.199219 11.820312 39.6875 L 11.824219 37.691406 L 12.328125 38.78125 C 12.601562 39.382812 12.847656 39.894531 12.871094 39.921875 C 12.929688 39.996094 12.996094 40.003906 13.390625 40.003906 C 13.789062 40 13.835938 39.992188 13.898438 39.910156 C 13.921875 39.878906 14.164062 39.367188 14.4375 38.773438 L 14.933594 37.695312 L 14.941406 39.6875 C 14.949219 41.199219 14.953125 41.691406 14.96875 41.722656 C 14.976562 41.742188 15 41.769531 15.023438 41.785156 C 15.058594 41.808594 15.101562 41.8125 15.46875 41.8125 C 15.832031 41.8125 15.875 41.808594 15.910156 41.785156 C 15.933594 41.769531 15.957031 41.742188 15.96875 41.722656 C 15.980469 41.691406 15.984375 41 15.984375 38.714844 C 15.984375 35.46875 15.992188 35.679688 15.902344 35.632812 C 15.863281 35.609375 15.804688 35.605469 15.445312 35.605469 C 14.980469 35.605469 14.960938 35.609375 14.886719 35.714844 C 14.863281 35.746094 14.515625 36.476562 14.113281 37.339844 C 13.710938 38.203125 13.375 38.90625 13.371094 38.898438 C 13.367188 38.894531 13.039062 38.191406 12.644531 37.339844 C 12.25 36.492188 11.90625 35.765625 11.882812 35.730469 C 11.804688 35.613281 11.78125 35.605469 11.34375 35.605469 C 11.132812 35.601562 10.949219 35.605469 10.933594 35.609375 Z M 10.933594 35.609375"/><path style="stroke:none;fill-rule:nonzero;fill:#000;fill-opacity:1" d="M 22.003906 35.609375 C 21.933594 35.625 21.894531 35.648438 21.875 35.695312 C 21.855469 35.738281 21.851562 35.960938 21.855469 38.042969 C 21.859375 40.171875 21.863281 40.351562 21.886719 40.46875 C 21.972656 40.898438 22.128906 41.21875 22.367188 41.460938 C 22.726562 41.8125 23.273438 41.972656 24.003906 41.933594 C 24.945312 41.878906 25.554688 41.386719 25.757812 40.519531 C 25.785156 40.394531 25.789062 40.335938 25.792969 39.617188 C 25.800781 38.773438 25.792969 38.640625 25.722656 38.371094 C 25.621094 37.960938 25.441406 37.667969 25.160156 37.457031 C 24.863281 37.230469 24.492188 37.125 24.011719 37.125 C 23.566406 37.125 23.246094 37.21875 22.980469 37.429688 L 22.890625 37.5 L 22.886719 36.609375 C 22.882812 35.726562 22.882812 35.714844 22.851562 35.675781 C 22.800781 35.609375 22.742188 35.601562 22.371094 35.601562 C 22.183594 35.601562 22.019531 35.605469 22.003906 35.609375 Z M 24.152344 38.054688 C 24.484375 38.160156 24.671875 38.417969 24.738281 38.867188 C 24.769531 39.058594 24.769531 40.011719 24.738281 40.207031 C 24.667969 40.664062 24.460938 40.9375 24.097656 41.035156 C 23.96875 41.070312 23.667969 41.070312 23.535156 41.035156 C 23.226562 40.953125 23.023438 40.742188 22.933594 40.40625 C 22.878906 40.199219 22.871094 40.09375 22.878906 39.457031 C 22.882812 38.851562 22.882812 38.84375 22.921875 38.703125 C 22.941406 38.628906 22.984375 38.511719 23.011719 38.453125 C 23.117188 38.238281 23.328125 38.078125 23.574219 38.027344 C 23.730469 37.992188 24.003906 38.003906 24.152344 38.054688 Z M 24.152344 38.054688"/><path style="stroke:none;fill-rule:nonzero;fill:#000;fill-opacity:1" d="M 28.664062 35.617188 C 28.636719 35.628906 28.597656 35.65625 28.582031 35.675781 C 28.554688 35.714844 28.554688 35.734375 28.554688 36.074219 C 28.554688 36.464844 28.558594 36.488281 28.644531 36.527344 C 28.671875 36.539062 28.902344 36.542969 29.507812 36.546875 L 30.332031 36.550781 L 30.332031 39.113281 C 30.332031 41.257812 30.332031 41.683594 30.351562 41.722656 C 30.386719 41.804688 30.417969 41.8125 30.875 41.8125 C 31.261719 41.8125 31.28125 41.808594 31.320312 41.78125 C 31.347656 41.761719 31.367188 41.726562 31.378906 41.6875 C 31.390625 41.640625 31.394531 40.976562 31.394531 39.085938 L 31.394531 36.550781 L 32.179688 36.550781 C 32.605469 36.546875 32.988281 36.542969 33.023438 36.535156 C 33.058594 36.53125 33.097656 36.507812 33.121094 36.488281 L 33.160156 36.449219 L 33.164062 36.097656 C 33.167969 35.710938 33.164062 35.667969 33.082031 35.628906 C 33.03125 35.601562 28.742188 35.589844 28.664062 35.617188 Z M 28.664062 35.617188"/><path style="stroke:none;fill-rule:nonzero;fill:#000;fill-opacity:1" d="M 18.679688 37.132812 C 18.148438 37.207031 17.800781 37.367188 17.511719 37.675781 C 17.273438 37.925781 17.128906 38.230469 17.046875 38.640625 C 17.027344 38.757812 17.023438 38.867188 17.023438 39.566406 C 17.023438 40.429688 17.023438 40.449219 17.109375 40.738281 C 17.265625 41.253906 17.65625 41.648438 18.179688 41.824219 C 18.644531 41.976562 19.355469 41.972656 19.804688 41.816406 C 20.363281 41.621094 20.742188 41.195312 20.894531 40.601562 C 20.960938 40.324219 20.96875 40.261719 20.96875 39.480469 C 20.96875 38.828125 20.964844 38.730469 20.941406 38.601562 C 20.792969 37.800781 20.300781 37.3125 19.496094 37.160156 C 19.375 37.136719 18.789062 37.117188 18.679688 37.132812 Z M 19.21875 38.023438 C 19.59375 38.105469 19.800781 38.332031 19.894531 38.757812 C 19.921875 38.886719 19.925781 38.960938 19.933594 39.410156 C 19.945312 40.117188 19.917969 40.351562 19.792969 40.605469 C 19.683594 40.828125 19.484375 40.980469 19.230469 41.035156 C 19.15625 41.054688 19.074219 41.058594 18.945312 41.050781 C 18.65625 41.042969 18.480469 40.96875 18.324219 40.796875 C 18.230469 40.699219 18.183594 40.613281 18.132812 40.460938 C 18.0625 40.257812 18.050781 40.121094 18.050781 39.53125 C 18.050781 38.941406 18.0625 38.800781 18.132812 38.597656 C 18.183594 38.441406 18.242188 38.34375 18.347656 38.238281 C 18.453125 38.132812 18.597656 38.058594 18.75 38.027344 C 18.882812 38 19.101562 38 19.21875 38.023438 Z M 19.21875 38.023438"/><path style="stroke:none;fill-rule:nonzero;fill:#000;fill-opacity:1" d="M 40.742188 37.148438 C 40.484375 37.183594 40.285156 37.242188 40.089844 37.339844 C 39.957031 37.40625 39.882812 37.460938 39.769531 37.570312 C 39.488281 37.839844 39.328125 38.183594 39.246094 38.695312 C 39.222656 38.832031 39.222656 39.054688 39.21875 40.984375 C 39.214844 42.710938 39.214844 43.132812 39.230469 43.1875 C 39.246094 43.234375 39.261719 43.257812 39.300781 43.28125 C 39.34375 43.304688 39.378906 43.308594 39.683594 43.3125 C 40.054688 43.320312 40.152344 43.308594 40.207031 43.25 L 40.242188 43.210938 L 40.246094 42.304688 C 40.25 41.808594 40.253906 41.402344 40.257812 41.402344 C 40.261719 41.402344 40.304688 41.433594 40.351562 41.472656 C 40.515625 41.605469 40.746094 41.703125 41 41.75 C 41.066406 41.761719 41.210938 41.769531 41.386719 41.769531 C 41.695312 41.765625 41.890625 41.738281 42.097656 41.664062 C 42.730469 41.4375 43.082031 40.917969 43.15625 40.089844 C 43.183594 39.816406 43.167969 38.699219 43.136719 38.535156 C 43.066406 38.167969 42.929688 37.890625 42.699219 37.65625 C 42.457031 37.402344 42.121094 37.238281 41.695312 37.160156 C 41.511719 37.128906 40.945312 37.121094 40.742188 37.148438 Z M 41.351562 38.003906 C 41.832031 38.0625 42.0625 38.332031 42.121094 38.902344 C 42.136719 39.09375 42.140625 39.730469 42.121094 39.921875 C 42.070312 40.457031 41.847656 40.765625 41.449219 40.863281 C 41.316406 40.894531 41.035156 40.898438 40.910156 40.863281 C 40.757812 40.824219 40.640625 40.757812 40.539062 40.652344 C 40.378906 40.492188 40.285156 40.265625 40.25 39.945312 C 40.230469 39.761719 40.230469 39.066406 40.25 38.886719 C 40.3125 38.335938 40.542969 38.0625 41 38.003906 C 41.132812 37.988281 41.207031 37.988281 41.351562 38.003906 Z M 41.351562 38.003906"/><path style="stroke:none;fill-rule:nonzero;fill:#000;fill-opacity:1" d="M 26.890625 37.257812 C 26.851562 37.269531 26.816406 37.292969 26.796875 37.316406 L 26.769531 37.359375 L 26.765625 39.5 C 26.761719 41.199219 26.765625 41.652344 26.777344 41.695312 C 26.789062 41.726562 26.816406 41.765625 26.835938 41.78125 C 26.875 41.808594 26.894531 41.8125 27.269531 41.8125 C 27.710938 41.8125 27.742188 41.804688 27.777344 41.722656 C 27.792969 41.683594 27.796875 41.320312 27.796875 39.527344 C 27.796875 37.175781 27.804688 37.3125 27.714844 37.269531 C 27.660156 37.242188 26.984375 37.234375 26.890625 37.257812 Z M 26.890625 37.257812"/><path style="stroke:none;fill-rule:nonzero;fill:#000;fill-opacity:1" d="M 34.050781 37.253906 C 34.023438 37.261719 33.992188 37.277344 33.980469 37.285156 C 33.914062 37.339844 33.914062 37.28125 33.914062 39.527344 C 33.914062 41.890625 33.910156 41.75 34.007812 41.792969 C 34.070312 41.820312 34.796875 41.820312 34.859375 41.792969 C 34.949219 41.753906 34.945312 41.820312 34.953125 40.371094 C 34.960938 38.890625 34.953125 38.980469 35.066406 38.746094 C 35.164062 38.546875 35.3125 38.398438 35.507812 38.304688 C 35.660156 38.230469 35.796875 38.207031 36.0625 38.207031 C 36.316406 38.207031 36.367188 38.191406 36.398438 38.113281 C 36.417969 38.074219 36.421875 37.988281 36.421875 37.71875 C 36.421875 37.242188 36.421875 37.242188 36.097656 37.242188 C 35.898438 37.242188 35.75 37.265625 35.605469 37.320312 C 35.363281 37.414062 35.101562 37.628906 34.980469 37.835938 L 34.941406 37.90625 L 34.933594 37.632812 C 34.929688 37.234375 34.941406 37.242188 34.417969 37.242188 C 34.242188 37.242188 34.074219 37.25 34.050781 37.253906 Z M 34.050781 37.253906"/><path style="stroke:none;fill-rule:nonzero;fill:#000;fill-opacity:1" d="M 37.257812 37.257812 C 37.214844 37.269531 37.183594 37.292969 37.164062 37.316406 L 37.132812 37.359375 L 37.132812 41.703125 L 37.164062 41.742188 C 37.214844 41.8125 37.269531 41.820312 37.671875 41.816406 C 38.082031 41.8125 38.117188 41.804688 38.144531 41.714844 C 38.167969 41.652344 38.167969 37.40625 38.144531 37.34375 C 38.117188 37.253906 38.082031 37.25 37.679688 37.246094 C 37.433594 37.242188 37.300781 37.25 37.257812 37.257812 Z M 37.257812 37.257812"/></g></svg>